<svg width="28" height="28" viewBox="0 0 28 28" fill="none" xmlns="http://www.w3.org/2000/svg">
<path d="M25.375 12.25C25.6071 12.25 25.8296 12.1578 25.9937 11.9937C26.1578 11.8296 26.25 11.6071 26.25 11.375V7C26.25 6.53587 26.0656 6.09075 25.7374 5.76256C25.4092 5.43437 24.9641 5.25 24.5 5.25H3.5C3.03587 5.25 2.59075 5.43437 2.26256 5.76256C1.93437 6.09075 1.75 6.53587 1.75 7V11.375C1.75 11.6071 1.84219 11.8296 2.00628 11.9937C2.17038 12.1578 2.39294 12.25 2.625 12.25C3.08913 12.25 3.53425 12.4344 3.86244 12.7626C4.19063 13.0908 4.375 13.5359 4.375 14C4.375 14.4641 4.19063 14.9092 3.86244 15.2374C3.53425 15.5656 3.08913 15.75 2.625 15.75C2.39294 15.75 2.17038 15.8422 2.00628 16.0063C1.84219 16.1704 1.75 16.3929 1.75 16.625V21C1.75 21.4641 1.93437 21.9092 2.26256 22.2374C2.59075 22.5656 3.03587 22.75 3.5 22.75H24.5C24.9641 22.75 25.4092 22.5656 25.7374 22.2374C26.0656 21.9092 26.25 21.4641 26.25 21V16.625C26.25 16.3929 26.1578 16.1704 25.9937 16.0063C25.8296 15.8422 25.6071 15.75 25.375 15.75C24.9109 15.75 24.4658 15.5656 24.1376 15.2374C23.8094 14.9092 23.625 14.4641 23.625 14C23.625 13.5359 23.8094 13.0908 24.1376 12.7626C24.4658 12.4344 24.9109 12.25 25.375 12.25ZM24.5 17.3863V21H18.375V18.375H16.625V21H3.5V17.3863C4.249 17.1905 4.91196 16.7519 5.38512 16.1392C5.85828 15.5265 6.11495 14.7742 6.11495 14C6.11495 13.2258 5.85828 12.4735 5.38512 11.8608C4.91196 11.2481 4.249 10.8095 3.5 10.6137V7H16.625V9.625H18.375V7H24.5V10.6137C23.751 10.8095 23.088 11.2481 22.6149 11.8608C22.1417 12.4735 21.885 13.2258 21.885 14C21.885 14.7742 22.1417 15.5265 22.6149 16.1392C23.088 16.7519 23.751 17.1905 24.5 17.3863Z" fill="#161616"/>
<path d="M18.375 11.375H16.625V16.625H18.375V11.375Z" fill="#161616"/>
</svg>
