<svg width="28" height="28" viewBox="0 0 28 28" fill="none" xmlns="http://www.w3.org/2000/svg">
<path d="M6.2 4.7H21.8V9H23.5V3H4.5V9H6.2V4.7Z" fill="#222222"/>
<mask id="path-2-inside-1_2923_255874" fill="white">
<path fill-rule="evenodd" clip-rule="evenodd" d="M10.6456 8H2.91732C2.59515 8 2.33398 8.26117 2.33398 8.58333V23.3333C2.33398 24.622 3.37866 25.6667 4.66732 25.6667H23.334C24.6227 25.6667 25.6673 24.622 25.6673 23.3333V8.58333C25.6673 8.26117 25.4062 8 25.084 8H17.3557C16.9254 9.44574 15.5862 10.5 14.0006 10.5C12.4151 10.5 11.0759 9.44574 10.6456 8Z"/>
</mask>
<path d="M10.6456 8L12.275 7.51508L11.9133 6.3H10.6456V8ZM17.3557 8V6.3H16.088L15.7263 7.51508L17.3557 8ZM2.91732 9.7H10.6456V6.3H2.91732V9.7ZM4.03398 8.58333C4.03398 9.20005 3.53404 9.7 2.91732 9.7V6.3C1.65627 6.3 0.633984 7.32228 0.633984 8.58333H4.03398ZM4.03398 23.3333V8.58333H0.633984V23.3333H4.03398ZM4.66732 23.9667C4.31754 23.9667 4.03398 23.6831 4.03398 23.3333H0.633984C0.633984 25.5609 2.43978 27.3667 4.66732 27.3667V23.9667ZM23.334 23.9667H4.66732V27.3667H23.334V23.9667ZM23.9673 23.3333C23.9673 23.6831 23.6838 23.9667 23.334 23.9667V27.3667C25.5615 27.3667 27.3673 25.5609 27.3673 23.3333H23.9673ZM23.9673 8.58333V23.3333H27.3673V8.58333H23.9673ZM25.084 9.7C24.4673 9.7 23.9673 9.20005 23.9673 8.58333H27.3673C27.3673 7.32228 26.345 6.3 25.084 6.3V9.7ZM17.3557 9.7H25.084V6.3H17.3557V9.7ZM15.7263 7.51508C15.5047 8.25981 14.8135 8.8 14.0006 8.8V12.2C16.3588 12.2 18.3462 10.6317 18.9851 8.48492L15.7263 7.51508ZM14.0006 8.8C13.1877 8.8 12.4966 8.25981 12.275 7.51508L9.01621 8.48492C9.65512 10.6317 11.6425 12.2 14.0006 12.2V8.8Z" fill="#222222" mask="url(#path-2-inside-1_2923_255874)"/>
<path d="M10.334 21H18.334" stroke="#222222" stroke-width="1.7"/>
</svg>
