<svg width="28" height="28" viewBox="0 0 28 28" fill="none" xmlns="http://www.w3.org/2000/svg">
<path fill-rule="evenodd" clip-rule="evenodd" d="M11.75 15.25V19.25C11.286 19.2495 10 19.25 10 19.25V9.25001C10 8.97386 10.2239 8.75001 10.5 8.75001H17C17.464 8.75054 17.9088 8.93508 18.2368 9.26316C18.5649 9.59123 18.7495 10.036 18.75 10.5V13.5C18.7495 13.964 18.565 14.4088 18.2369 14.7369C17.9088 15.065 17.464 15.2495 17 15.25H11.75ZM11.75 10.5V13.5H16.5C16.7761 13.5 17 13.2761 17 13V11C17 10.7239 16.7761 10.5 16.5 10.5H11.75Z" fill="#161616"/>
<path fill-rule="evenodd" clip-rule="evenodd" d="M7.19427 24.1855C9.20877 25.5316 11.5772 26.25 14 26.25C17.246 26.2405 20.3563 24.9468 22.6516 22.6516C24.9468 20.3563 26.2405 17.246 26.25 14C26.25 11.5772 25.5316 9.20877 24.1855 7.19427C22.8395 5.17977 20.9263 3.60966 18.6879 2.68248C16.4495 1.75531 13.9864 1.51272 11.6101 1.98539C9.23388 2.45806 7.05114 3.62475 5.33795 5.33795C3.62475 7.05114 2.45805 9.23388 1.98539 11.6101C1.51272 13.9864 1.75531 16.4495 2.68248 18.6879C3.60965 20.9263 5.17977 22.8395 7.19427 24.1855ZM19.8335 22.7304C18.1068 23.8842 16.0767 24.5 14 24.5C11.2177 24.4919 8.55175 23.383 6.58439 21.4156C4.61702 19.4483 3.50815 16.7823 3.50001 14C3.50001 11.9233 4.11582 9.89323 5.26957 8.16652C6.42333 6.4398 8.06321 5.09399 9.98183 4.29927C11.9005 3.50455 14.0117 3.29662 16.0485 3.70176C18.0853 4.10691 19.9562 5.10693 21.4246 6.57538C22.8931 8.04384 23.8931 9.91476 24.2983 11.9516C24.7034 13.9884 24.4955 16.0996 23.7007 18.0182C22.906 19.9368 21.5602 21.5767 19.8335 22.7304Z" fill="#161616"/>
</svg>
